<svg height="512pt" viewBox="0 0 511 512" width="512pt" xmlns="http://www.w3.org/2000/svg"><path d="m176.363281 47.71875c.914063 0 1.84375-.167969 2.746094-.523438 4.785156-1.886718 9.699219-3.636718 14.601563-5.199218 3.945312-1.257813 6.125-5.476563 4.867187-9.425782-1.257813-3.945312-5.476563-6.125-9.425781-4.867187-5.21875 1.664063-10.449219 3.527344-15.542969 5.535156-3.855469 1.519531-5.746094 5.875-4.226563 9.730469 1.164063 2.949219 3.988282 4.75 6.980469 4.75zm0 0"/><path d="m27.558594 305.992188c4.101562-.585938 6.949218-4.390626 6.359375-8.492188-1.445313-10.0625-2.242188-20.359375-2.367188-30.597656-.046875-4.144532-3.414062-7.433594-7.589843-7.410156-4.140626.046874-7.460938 3.445312-7.410157 7.589843.132813 10.890625.976563 21.84375 2.515625 32.554688.539063 3.738281 3.746094 6.433593 7.417969 6.433593.355469 0 .714844-.027343 1.074219-.078124zm0 0"/><path d="m492.242188 342.09375c-3.878907-1.464844-8.207032.488281-9.671876 4.363281-3.609374 9.539063-7.894531 18.941407-12.742187 27.9375-1.960937 3.644531-.597656 8.195313 3.046875 10.160157 1.132812.609374 2.351562.898437 3.550781.898437 2.671875 0 5.257813-1.429687 6.613281-3.945313 5.15625-9.578124 9.722657-19.585937 13.5625-29.746093 1.464844-3.875-.488281-8.203125-4.359374-9.667969zm0 0"/><path d="m474.539062 132.023438c-5.785156-9.179688-12.238281-18.074219-19.1875-26.429688-2.648437-3.1875-7.375-3.621094-10.5625-.972656-3.1875 2.648437-3.621093 7.378906-.972656 10.5625 6.527344 7.855468 12.59375 16.210937 18.03125 24.835937 1.425782 2.265625 3.859375 3.503907 6.351563 3.503907 1.367187 0 2.75-.371094 3.992187-1.152344 3.503906-2.210938 4.554688-6.839844 2.347656-10.347656zm0 0"/><path d="m504.652344 280.042969c-4.132813-.394531-7.789063 2.621093-8.1875 6.746093-.984375 10.171876-2.652344 20.363282-4.960938 30.285157-.941406 4.035156 1.570313 8.066406 5.605469 9.003906.570313.132813 1.140625.195313 1.703125.195313 3.410156 0 6.496094-2.335938 7.300781-5.800782 2.457031-10.566406 4.234375-21.410156 5.285157-32.238281.398437-4.125-2.621094-7.792969-6.746094-8.191406zm0 0"/><path d="m494.394531 225.546875c1.671875 10.042969 2.691407 20.316406 3.03125 30.546875.136719 4.054688 3.464844 7.25 7.492188 7.25.085937 0 .171875 0 .257812-.003906 4.140625-.136719 7.382813-3.605469 7.246094-7.746094-.367187-10.882812-1.449219-21.820312-3.226563-32.503906-.679687-4.089844-4.542968-6.855469-8.628906-6.171875-4.085937.679687-6.851562 4.542969-6.171875 8.628906zm0 0"/><path d="m487.371094 195.675781c.988281 3.230469 3.957031 5.304688 7.167968 5.304688.726563 0 1.46875-.105469 2.199219-.332031 3.960938-1.214844 6.1875-5.40625 4.972657-9.367188-3.179688-10.386719-7.09375-20.660156-11.625-30.542969-1.730469-3.765625-6.179688-5.417969-9.945313-3.6875-3.765625 1.726563-5.417969 6.179688-3.691406 9.945313 4.257812 9.277344 7.933593 18.929687 10.921875 28.679687zm0 0"/><path d="m222.191406 34.753906c.4375 0 .878906-.039062 1.320313-.117187 10.027343-1.78125 20.296875-2.914063 30.523437-3.367188 4.136719-.183593 7.34375-3.6875 7.160156-7.828125-.183593-4.136718-3.695312-7.332031-7.828124-7.160156-10.878907.484375-21.808594 1.6875-32.476563 3.585938-4.078125.722656-6.800781 4.617187-6.074219 8.695312.644532 3.636719 3.808594 6.191406 7.375 6.191406zm0 0"/><path d="m284.734375 31.898438c10.191406.875 20.398437 2.429687 30.339844 4.628906.546875.121094 1.089843.179687 1.628906.179687 3.441406 0 6.542969-2.386719 7.316406-5.882812.894531-4.046875-1.660156-8.050781-5.707031-8.945313-10.582031-2.339844-21.449219-3.996094-32.292969-4.929687-4.132812-.347657-7.761719 2.707031-8.117187 6.835937-.351563 4.125 2.707031 7.757813 6.832031 8.113282zm0 0"/><path d="m344.554688 45.132812c9.582031 3.503907 19.027343 7.6875 28.074218 12.433594 1.113282.582032 2.304688.859375 3.480469.859375 2.699219 0 5.308594-1.460937 6.648437-4.019531 1.925782-3.667969.511719-8.203125-3.15625-10.125-9.636718-5.054688-19.691406-9.507812-29.894531-13.238281-3.890625-1.421875-8.199219.578125-9.621093 4.46875-1.421876 3.890625.578124 8.199219 4.46875 9.621093zm0 0"/><path d="m33.402344 196.921875c-4.011719-1.023437-8.097656 1.390625-9.125 5.40625-2.691406 10.515625-4.710938 21.324219-5.996094 32.128906-.488281 4.113281 2.449219 7.84375 6.5625 8.332031.300781.039063.601562.054688.894531.054688 3.75 0 6.988281-2.800781 7.441407-6.617188 1.207031-10.148437 3.101562-20.300781 5.628906-30.179687 1.027344-4.011719-1.390625-8.097656-5.40625-9.125zm0 0"/><path d="m300.523438 494.300781c-10.054688 1.558594-20.34375 2.46875-30.578126 2.699219-4.140624.09375-7.421874 3.527344-7.328124 7.667969.09375 4.085937 3.429687 7.332031 7.496093 7.332031.058594 0 .113281 0 .171875-.003906 10.890625-.246094 21.835938-1.210938 32.535156-2.871094 4.09375-.632812 6.898438-4.464844 6.265626-8.558594-.632813-4.09375-4.464844-6.898437-8.5625-6.265625zm0 0"/><path d="m359.269531 477.003906c-9.324219 4.15625-19.015625 7.722656-28.796875 10.601563-3.972656 1.171875-6.246094 5.339843-5.078125 9.316406.964844 3.265625 3.953125 5.382813 7.191407 5.382813.703124 0 1.417968-.097657 2.125-.308594 10.417968-3.066406 20.734374-6.863282 30.664062-11.289063 3.785156-1.683593 5.488281-6.121093 3.800781-9.902343-1.6875-3.785157-6.121093-5.484376-9.90625-3.800782zm0 0"/><path d="m179.753906 481.15625c-9.5-3.714844-18.851562-8.105469-27.792968-13.050781-3.625-2.003907-8.191407-.6875-10.195313 2.9375s-.691406 8.1875 2.933594 10.191406c9.523437 5.265625 19.480469 9.941406 29.59375 13.894531.898437.351563 1.820312.515625 2.730469.515625 3 0 5.828124-1.8125 6.988281-4.769531 1.507812-3.863281-.398438-8.210938-4.257813-9.71875zm0 0"/><path d="m239.265625 495.707031c-10.164063-1.097656-20.335937-2.878906-30.230469-5.296875-4.027344-.984375-8.082031 1.480469-9.066406 5.503906-.984375 4.023438 1.480469 8.085938 5.503906 9.066407 10.535156 2.574219 21.363282 4.472656 32.183594 5.640625.273438.03125.542969.042968.8125.042968 3.78125 0 7.035156-2.851562 7.449219-6.695312.445312-4.121094-2.53125-7.820312-6.652344-8.261719zm0 0"/><path d="m411.433594 444.941406c-7.921875 6.441406-16.34375 12.417969-25.027344 17.757813-3.53125 2.167969-4.632812 6.789062-2.464844 10.316406 1.417969 2.304687 3.878906 3.574219 6.398438 3.574219 1.339844 0 2.695312-.359375 3.921875-1.113282 9.242187-5.679687 18.203125-12.039062 26.636719-18.894531 3.214843-2.613281 3.703124-7.335937 1.089843-10.550781s-7.339843-3.703125-10.554687-1.089844zm0 0"/><path d="m463.992188 398.722656c-3.359376-2.429687-8.046876-1.671875-10.472657 1.683594-5.980469 8.269531-12.566406 16.226562-19.582031 23.652344-2.847656 3.011718-2.710938 7.757812.300781 10.601562 1.449219 1.371094 3.300781 2.050782 5.148438 2.050782 1.992187 0 3.976562-.789063 5.453125-2.347657 7.464844-7.902343 14.476562-16.367187 20.835937-25.167969 2.425781-3.355468 1.671875-8.046874-1.683593-10.472656zm0 0"/><path d="m432.871094 81.898438c-7.980469-7.378907-16.523438-14.296876-25.390625-20.5625-3.386719-2.390626-8.066407-1.582032-10.457031 1.800781-2.390626 3.382812-1.582032 8.0625 1.800781 10.453125 8.332031 5.886718 16.363281 12.390625 23.863281 19.324218 1.441406 1.332032 3.269531 1.992188 5.089844 1.992188 2.015625 0 4.03125-.8125 5.507812-2.410156 2.8125-3.039063 2.628906-7.785156-.414062-10.597656zm0 0"/><path d="m50.566406 356.4375c-4.050781-9.371094-7.511718-19.097656-10.285156-28.914062-1.125-3.988282-5.269531-6.304688-9.253906-5.179688-3.988282 1.125-6.308594 5.269531-5.179688 9.257812 2.953125 10.453126 6.636719 20.8125 10.949219 30.785157 1.226563 2.835937 3.988281 4.527343 6.886719 4.527343.996094 0 2.003906-.199218 2.976562-.617187 3.800782-1.644531 5.550782-6.058594 3.90625-9.859375zm0 0"/><path d="m64.574219 383.722656c-2.132813-3.554687-6.738281-4.707031-10.292969-2.574218-3.550781 2.128906-4.707031 6.734374-2.574219 10.289062 5.582031 9.304688 11.839844 18.335938 18.605469 26.84375 1.480469 1.863281 3.664062 2.832031 5.875 2.832031 1.636719 0 3.28125-.535156 4.664062-1.628906 3.242188-2.578125 3.78125-7.296875 1.203126-10.542969-6.355469-7.988281-12.238282-16.476562-17.480469-25.21875zm0 0"/><path d="m126.125 451.507812c-8.203125-6.066406-16.085938-12.742187-23.433594-19.835937-2.980468-2.878906-7.726562-2.792969-10.605468.183594-2.878907 2.980469-2.796876 7.730469.183593 10.605469 7.816407 7.550781 16.207031 14.652343 24.9375 21.109374 1.339844.992188 2.902344 1.472657 4.453125 1.472657 2.296875 0 4.5625-1.054688 6.035156-3.042969 2.464844-3.328125 1.761719-8.027344-1.570312-10.492188zm0 0"/><path d="m48.527344 176.53125c1.933594-4.765625 4.050781-9.53125 6.300781-14.160156 1.8125-3.726563.257813-8.214844-3.46875-10.023438-3.726563-1.8125-8.214844-.257812-10.023437 3.46875-2.394532 4.929688-4.652344 10.003906-6.710938 15.074219-1.558594 3.839844.292969 8.214844 4.132812 9.769531.921876.375 1.875.554688 2.816407.554688 2.960937 0 5.769531-1.769532 6.953125-4.683594zm0 0"/><path d="m58.046875 84.40625c4.148437 0 8.042969-1.613281 10.972656-4.546875l.367188-.363281 6.398437 6.398437-17.371094 17.371094c-6.050781 6.050781-6.050781 15.894531 0 21.945313l11.335938 11.335937c2.933594 2.933594 6.828125 4.546875 10.972656 4.546875 4.148438 0 8.042969-1.613281 10.972656-4.546875l17.375-17.371094 6.917969 6.921875-.363281.363282c-2.933594 2.933593-4.546875 6.828124-4.546875 10.972656 0 4.148437 1.617187 8.042968 4.546875 10.972656l42.03125 42.03125c3.023438 3.023438 6.996094 4.539062 10.972656 4.539062 3.972656 0 7.945313-1.515624 10.972656-4.539062l11.335938-11.335938c6.050781-6.050781 6.050781-15.894531 0-21.945312l-42.027344-42.03125c-2.933594-2.933594-6.828125-4.546875-10.972656-4.546875-4.148438 0-8.042969 1.617187-10.976562 4.546875l-.363282.363281-6.921875-6.917969.367188-.367187c2.226562-2.222656 3.625-4.964844 4.214843-7.835937.605469.035156 1.210938.058593 1.820313.058593 8.078125 0 16.160156-3.078125 22.308594-9.226562 1.410156-1.40625 2.199219-3.316407 2.199219-5.304688s-.789063-3.898437-2.199219-5.304687l-11.703125-11.703125 11.703125-11.703125c2.929687-2.929688 2.929687-7.679688 0-10.605469-2.929688-2.929687-7.675781-2.929687-10.605469 0l-11.703125 11.703125-11.707031-11.707031c-2.925782-2.929688-7.675782-2.929688-10.605469 0-6.613281 6.617187-9.667969 15.457031-9.167969 24.132812-2.875.589844-5.613281 1.988281-7.839844 4.214844l-.363281.363281-6.398437-6.398437.363281-.367188c2.933594-2.929687 4.546875-6.824219 4.546875-10.972656 0-4.144531-1.613281-8.039063-4.546875-10.972656l-42.03125-42.03125c-2.929687-2.929688-6.828125-4.542969-10.972656-4.542969s-8.042969 1.613281-10.972657 4.542969l-11.339843 11.339843c-2.929688 2.929688-4.542969 6.828126-4.542969 10.972657s1.613281 8.042969 4.542969 10.972656l42.03125 42.03125c2.933593 2.929687 6.828125 4.546875 10.972656 4.546875zm79.886719 41.175781c.132812 0 .265625.050781.367187.152344l42.027344 42.027344c.203125.203125.203125.53125 0 .730469l-11.335937 11.339843c-.203126.199219-.53125.199219-.730469 0l-42.03125-42.03125c-.199219-.203125-.199219-.53125 0-.730469l11.335937-11.335937c.101563-.101563.234375-.152344.367188-.152344zm-27.59375-61.820312 20.863281 20.859375c-5.730469 1.855468-12.28125.511718-16.828125-4.027344l-.007812-.007812c-4.539063-4.542969-5.882813-11.09375-4.027344-16.824219zm-.90625 33.105469c.039062.035156.152344.148437.152344.363281 0 .214843-.113282.328125-.152344.367187l-28.34375 28.34375c-.199219.199219-.527344.199219-.730469 0l-11.339844-11.339844c-.035156-.035156-.148437-.148437-.148437-.363281 0-.214843.113281-.328125.148437-.367187l28.34375-28.34375c.039063-.035156.152344-.148438.367188-.148438.214843 0 .328125.113282.363281.148438zm-93.78125-70.375 11.339844-11.339844c.199218-.199219.527343-.203125.726562 0l42.03125 42.03125c.039062.039062.152344.152344.152344.363281 0 .214844-.113282.328125-.152344.367187l-11.335938 11.339844c-.039062.035156-.152343.148438-.367187.148438-.210937 0-.328125-.113282-.363281-.148438l-42.03125-42.03125c-.203125-.203125-.203125-.53125 0-.730468zm0 0"/><path d="m373.246094 146.878906c-3.035156-2.820312-7.78125-2.644531-10.597656.394532-2.820313 3.035156-2.644532 7.78125.394531 10.597656 17.472656 16.21875 30.519531 36.4375 38.246093 58.589844h-8.46875c-8.554687 0-15.515624 6.960937-15.515624 15.519531v6.070312c0 4.421875-1.722657 8.578125-4.847657 11.703125l-11.703125 11.703125-18.75-18.746093c-2.929687-2.929688-7.679687-2.929688-10.605468 0-2.929688 2.929687-2.929688 7.679687 0 10.605468l18.746093 18.75-11.703125 11.703125c-5.957031 5.957031-9.242187 13.882813-9.242187 22.308594v30.125c0 17.964844-14.617188 32.585937-32.582031 32.585937-4.707032 0-8.535157-3.828124-8.535157-8.535156v-48.101562c0-17.398438-14.152343-31.554688-31.550781-31.554688h-20.042969c-11.335937 0-20.558593-9.222656-20.558593-20.558594 0-11.335937 9.222656-20.558593 20.558593-20.558593h60.128907c12.976562 0 23.53125-10.558594 23.53125-23.535157 0-12.976562-10.554688-23.535156-23.53125-23.535156h-24.050782c-12.980468 0-23.535156 10.558594-23.535156 23.535156 0 4.707032-3.832031 8.535157-8.535156 8.535157s-8.53125-3.828125-8.53125-8.535157v-32.066406c0-4.707031 3.828125-8.535156 8.53125-8.535156h16.035156c4.140625 0 7.5-3.355469 7.5-7.5 0-4.703125 3.828125-8.53125 8.535156-8.53125h17.410156c6.285157 0 12.195313-2.449219 16.640626-6.894531l19.476562-19.476563c3.816406 1.789063 7.566406 3.734375 11.222656 5.863282 1.1875.691406 2.484375 1.023437 3.765625 1.023437 2.585938 0 5.097657-1.335937 6.492188-3.726563 2.082031-3.582031.871093-8.171874-2.707031-10.257812-24.289063-14.144531-52.0625-21.617188-80.320313-21.617188-23.5 0-46.144531 4.984376-67.300781 14.820313-3.753906 1.746094-5.386719 6.207031-3.640625 9.964844 1.75 3.753906 6.210937 5.382812 9.964843 3.636719 19.160157-8.90625 39.675782-13.421876 60.976563-13.421876 15.863281 0 31.550781 2.605469 46.421875 7.625l-14.957031 14.960938c-1.613281 1.609375-3.757813 2.5-6.035157 2.5h-17.410156c-10.355468 0-19.171875 6.722656-22.3125 16.035156h-9.757812c-12.976563 0-23.535156 10.554688-23.535156 23.53125v32.070313c0 4.523437 1.285156 8.757812 3.507812 12.347656-11.582031 5.871094-19.539062 17.894531-19.539062 31.746094 0 19.609375 15.949218 35.558593 35.558593 35.558593h20.042969c9.128906 0 16.550781 7.425782 16.550781 16.550782v48.105468c0 12.976563 10.558594 23.535157 23.535157 23.535157 26.238281 0 47.585937-21.347657 47.585937-47.589844v-30.121094c0-4.421875 1.722656-8.578125 4.847656-11.703125l34.015625-34.015625c5.957032-5.957031 9.242188-13.882812 9.242188-22.308593v-6.074219c0-.285157.230468-.515625.515625-.515625h12.800781c2.464844 10.617187 3.75 21.542968 3.75 32.585937 0 79.855469-64.96875 144.824219-144.824219 144.824219-37.144531 0-71.0625-14.058594-96.722656-37.128906v-83.074219c0-12.710937-4.949219-24.660156-13.9375-33.648437l-29.109375-29.109376c2.488281-9.121093 5.878906-18.003906 10.179688-26.597656 1.855468-3.707031.355468-8.214844-3.347657-10.066406-3.703125-1.855469-8.210937-.355469-10.066406 3.347656-11.164063 22.300782-16.824219 46.339844-16.824219 71.453125 0 88.128907 71.699219 159.828125 159.828125 159.828125 88.128907 0 159.824219-71.703125 159.824219-159.832031 0-44.304687-18.636719-87.011719-51.128906-117.167969zm-109.214844 69.066406c0-4.707031 3.828125-8.53125 8.535156-8.53125h24.050782c4.703124 0 8.53125 3.828126 8.53125 8.53125 0 4.703126-3.828126 8.535157-8.53125 8.535157h-34.1875c1.035156-2.648438 1.601562-5.527344 1.601562-8.535157zm-144.308594 48.101563c0-6.941406.484375-13.796875 1.433594-20.539063l22.125 22.121094c6.152344 6.15625 9.542969 14.335938 9.542969 23.039063v67.4375c-20.671875-25.042969-33.101563-57.125-33.101563-92.058594zm0 0"/></svg>